PathFileType  4	(X/Y/Z) C:\Users\antoi\Documents\MyRepositories\mobilecap\ResultsAnalysis
DataRate	CameraRate	NumFrames	NumMarkers	Units	OrigDataRate	OrigDataStartFrame	OrigNumFrames
100.0	100.0	6	51	mm	100.0	52	136
Frame#	Time	r_knee			r_shank_antsup			r_ankle			r_calc			r_5meta			r_toe			L_knee			L_shank_antsup			L_ankle			L_calc			L_5meta			L_toe			r_sh2			r_sh3			r_sh4			L_sh2			L_sh3			r_thigh1			r_thigh2			r_thigh3			r_thigh4			r_thigh5			L_thigh1			L_thigh2			L_thigh3			L_thigh4			r.ASIS			r.PSIS			L.ASIS			L.PSIS			C7			R_Shoulder			L_Shoulder			R_Sternum			L_Sternum			R_humerus			R_elbow_med			R_elbow_lat			R_forearm			R_wrist_radius			R_wrist_ulna			L_humerus			L_elbow_med			L_elbow_lat			L_forearm			L_wrist_radius			L_wrist_ulna			R_HJC			L_HJC			R_HJC_reg			L_HJC_reg			
		X1	Y1	Z1	X2	Y2	Z2	X3	Y3	Z3	X4	Y4	Z4	X5	Y5	Z5	X6	Y6	Z6	X7	Y7	Z7	X8	Y8	Z8	X9	Y9	Z9	X10	Y10	Z10	X11	Y11	Z11	X12	Y12	Z12	X13	Y13	Z13	X14	Y14	Z14	X15	Y15	Z15	X16	Y16	Z16	X17	Y17	Z17	X18	Y18	Z18	X19	Y19	Z19	X20	Y20	Z20	X21	Y21	Z21	X22	Y22	Z22	X23	Y23	Z23	X24	Y24	Z24	X25	Y25	Z25	X26	Y26	Z26	X27	Y27	Z27	X28	Y28	Z28	X29	Y29	Z29	X30	Y30	Z30	X31	Y31	Z31	X32	Y32	Z32	X33	Y33	Z33	X34	Y34	Z34	X35	Y35	Z35	X36	Y36	Z36	X37	Y37	Z37	X38	Y38	Z38	X39	Y39	Z39	X40	Y40	Z40	X41	Y41	Z41	X42	Y42	Z42	X43	Y43	Z43	X44	Y44	Z44	X45	Y45	Z45	X46	Y46	Z46	X47	Y47	Z47	X48	Y48	Z48	X49	Y49	Z49	X50	Y50	Z50	X51	Y51	Z51	

52	0.51000000	317.38327	480.51760	-122.90285	337.08154	411.39329	-127.26431	224.07375	97.05382	-163.01198	166.62826	72.87138	-205.47767	327.05259	40.92442	-136.06982	372.55370	55.46719	-188.56714	611.77393	479.53058	-362.07568	673.00984	419.22144	-340.21372	715.83590	110.12092	-352.13174	669.53573	52.37159	-316.72737	834.52228	94.89040	-361.57354	865.87449	132.31292	-302.71332	301.56350	305.09789	-124.98982	267.10370	434.61578	-104.31846	221.39149	327.49589	-110.26912	601.84967	412.99644	-396.37514	634.17898	294.41388	-404.46615	422.74378	708.58579	-62.63953	399.68348	599.91343	-87.56231	331.19319	592.94098	-90.51184	311.22370	730.42601	-72.35991	286.09827	623.87860	-111.66970	537.34110	744.69471	-412.54507	594.42775	619.91555	-387.28404	437.25500	697.58412	-422.28662	490.02335	578.07131	-377.78208	505.91912	913.69527	-122.71846	301.06890	944.79903	-215.34743	521.15267	911.83027	-343.92027	309.17152	938.11820	-296.33125	414.31584	1385.76928	-225.62625	464.30077	1351.74372	-88.16165	450.58594	1355.98444	-366.16670	535.54689	1312.15236	-205.49945	532.73287	1313.68031	-247.01104	515.67162	1251.55512	-35.03607	495.34722	1028.50973	-21.84669	541.25448	1053.56422	20.22870	629.77435	1019.41760	1.27967	728.03560	918.01609	-34.82800	713.40265	901.89375	-2.32671	434.27918	1258.42535	-440.95088	353.32936	1046.11213	-429.03883	374.11319	1066.89681	-488.37123	429.66246	976.03778	-514.71282	462.50066	850.62629	-517.21085	429.46980	849.24700	-541.08060	422.85396	827.19795	-135.14512	440.07276	825.71526	-341.93489	432.38467	853.62763	-155.41221	446.90364	841.65553	-300.54303	
53	0.52000000	324.75197	480.67966	-123.10268	343.69569	411.02489	-127.28826	225.09772	98.41730	-163.00453	167.29344	74.66390	-205.56321	327.19964	40.88676	-136.02933	373.05763	55.05302	-188.42108	621.78204	476.65576	-361.18818	684.02311	418.83108	-338.81740	736.90990	110.46927	-350.79524	692.08507	51.45221	-315.47461	855.95982	98.23609	-359.82002	886.23700	136.75607	-301.07385	306.30745	305.38188	-124.89947	274.05965	435.50984	-104.55700	226.46394	329.18560	-110.38283	613.43841	410.54284	-395.50725	649.47782	292.93010	-403.64928	432.21933	707.76088	-62.74509	408.08684	599.36994	-87.34922	339.49745	593.04134	-90.81127	320.72137	730.86875	-73.23484	294.77723	624.23301	-112.37490	549.71006	742.01533	-412.53513	605.34693	616.76372	-386.65830	449.15881	695.88792	-422.53719	500.57651	575.96721	-377.62204	517.44523	912.21318	-122.90912	313.17942	942.96703	-216.64453	533.97213	909.95246	-344.15156	321.77849	936.08790	-297.62617	426.04782	1383.94970	-225.85555	476.18238	1350.04378	-88.43688	461.85298	1353.96649	-366.43286	547.45085	1310.34231	-205.85667	544.56300	1311.95048	-247.41865	528.43089	1250.25828	-35.65264	510.13762	1027.10148	-22.34793	556.14603	1052.65055	19.38248	644.83423	1019.67737	0.00847	744.27038	919.89333	-37.07534	730.10762	903.46477	-4.57717	445.27898	1256.36562	-441.06394	364.29269	1044.01299	-428.84881	384.73177	1064.93630	-488.35482	439.65956	974.01577	-515.29453	471.93394	848.45136	-518.28627	438.75832	847.26426	-541.96726	434.62985	825.60784	-135.64613	452.94837	823.75893	-342.33409	444.13888	852.04629	-155.91817	459.54387	839.72113	-301.01707	
54	0.53000000	333.05702	480.57062	-123.29861	351.23048	410.37883	-127.36532	226.23245	99.96881	-162.93973	168.09328	76.73897	-205.60794	327.38283	40.85985	-135.98652	373.57612	54.57844	-188.28377	631.78198	474.06788	-360.36163	694.42734	417.76579	-337.98978	753.86600	109.89481	-348.94811	710.14326	50.33297	-313.17920	872.94837	99.69957	-358.64866	902.90280	139.12132	-300.31964	311.79224	305.48330	-124.84932	282.03463	436.24136	-104.72260	232.36839	330.83567	-110.38070	623.85752	407.92977	-394.45113	662.24006	291.01143	-402.37907	442.18777	706.91131	-62.93543	417.25653	598.72041	-87.17708	348.58738	592.86816	-91.07983	330.77655	730.96355	-74.14718	304.24009	624.29122	-113.13076	562.28677	739.66408	-412.72699	616.59624	614.06098	-385.98916	461.38172	694.32325	-422.94160	511.46017	574.16176	-377.34665	529.02539	910.79507	-123.03637	325.32192	941.23543	-218.22917	546.93538	908.11299	-344.31505	334.50077	934.18154	-299.19897	437.88862	1382.26560	-226.15069	488.15665	1348.41007	-88.75655	473.13702	1352.03063	-366.78581	559.46397	1308.60922	-206.26260	556.49079	1310.31090	-247.89773	541.13468	1248.93347	-36.31459	524.54595	1025.70153	-22.80859	570.72191	1051.69627	18.47655	659.46768	1019.74662	-1.27378	760.08540	921.55060	-39.19538	746.18493	904.73573	-6.74008	456.33177	1254.34752	-441.24102	375.53350	1041.83309	-428.67096	395.62190	1062.91531	-488.34453	449.93842	971.96780	-515.87037	481.62568	846.25128	-519.35252	448.31959	845.26054	-542.83966	446.33448	824.11203	-136.23002	465.99344	821.86249	-342.78519	455.89432	850.49308	-156.46112	472.33556	837.85638	-301.51536	
55	0.54000000	342.27764	480.23625	-123.44718	359.64599	409.50403	-127.46510	227.52341	101.76765	-162.80411	169.07348	79.19373	-205.60573	327.61519	40.85430	-135.93548	374.12113	54.07214	-188.16361	641.82889	471.75643	-359.59795	704.37798	415.93304	-337.67543	766.74756	108.27539	-346.68079	723.69775	48.89162	-310.02759	885.65761	99.05644	-357.90603	915.97516	139.11816	-300.19905	317.97571	305.46956	-124.81703	290.99048	436.86098	-104.81654	239.07353	332.51129	-110.27456	633.27548	405.09012	-393.20913	672.58885	288.49470	-400.64655	452.62349	706.07657	-63.19779	427.16909	598.00166	-87.05578	358.43910	592.46681	-91.34110	341.36476	730.75134	-75.10619	314.55194	624.15010	-114.00899	575.06668	737.69829	-413.06868	628.19228	611.83689	-385.29878	473.91420	692.93199	-423.47223	522.67416	572.68664	-377.00979	540.69887	909.48805	-123.08230	337.53661	939.63559	-220.05559	560.03927	906.40683	-344.37719	347.35260	932.44417	-300.98982	449.85770	1380.76359	-226.52971	500.23745	1346.90491	-89.14858	484.47501	1350.23928	-367.23702	571.59860	1307.00273	-206.71154	568.52401	1308.80290	-248.44988	553.76777	1247.64554	-37.02386	538.54298	1024.35435	-23.29024	584.91357	1050.74373	17.53335	673.63103	1019.65654	-2.59440	775.39588	922.95604	-41.18028	761.59885	905.71805	-8.80454	467.44455	1252.44002	-441.50045	387.02440	1039.67673	-428.51060	406.77288	1060.91646	-488.33847	460.50135	969.95101	-516.42364	491.57136	844.08760	-520.39319	458.14355	843.29283	-543.67291	458.02220	822.74640	-136.87955	479.23360	820.10422	-343.27099	467.70426	849.02409	-157.00476	485.28795	836.14042	-301.99568	
56	0.55000000	352.36027	479.74872	-123.49416	368.88225	408.47086	-127.53724	229.03793	103.86400	-162.56886	170.28470	82.12521	-205.54165	327.91390	40.87463	-135.86590	374.71942	53.57552	-188.05822	651.94982	469.66524	-358.88509	713.98057	413.36005	-337.74306	775.95371	105.71385	-344.16526	733.11729	47.19430	-306.40099	894.60206	96.37208	-357.34988	925.81879	136.71494	-300.32172	324.79592	305.42686	-124.76182	300.87018	437.43522	-104.82670	246.53440	334.29270	-110.06587	641.89335	402.05307	-391.78826	680.83031	285.38872	-398.49481	463.51403	705.30314	-63.52570	437.78225	597.26548	-86.98044	369.00788	591.90728	-91.61258	352.45009	730.31803	-76.12543	325.75000	623.90776	-115.06521	588.02768	736.10940	-413.51031	640.12589	610.04989	-384.66388	486.70551	691.72577	-424.07483	534.20079	571.52539	-376.63519	552.51590	908.33398	-123.04615	349.88237	938.18061	-222.04295	573.28739	904.91677	-344.33068	360.35129	930.91133	-302.91123	461.96468	1379.47245	-227.01930	512.42821	1345.58544	-89.64347	495.91889	1348.64590	-367.79867	583.86119	1305.56533	-207.21082	580.67065	1307.46294	-249.08223	566.31790	1246.45716	-37.78748	552.10581	1023.10252	-23.87702	598.64861	1049.83258	16.57109	687.27830	1019.44265	-3.97372	790.10085	924.07473	-43.02443	776.31022	906.42392	-10.75329	478.64210	1250.70729	-441.86420	398.74642	1037.65324	-428.36650	418.17144	1059.02428	-488.33311	471.34256	968.02843	-516.94055	501.77679	842.02876	-521.38837	468.22100	841.42195	-544.44190	469.77844	821.53574	-137.57388	492.69088	818.55182	-343.77527	479.65359	847.66911	-157.52028	498.41388	834.64194	-302.43378	
57	0.56000000	363.23621	479.18834	-123.38701	378.86890	407.35258	-127.51491	230.85660	106.29277	-162.19598	171.78218	85.62144	-205.39517	328.29768	40.91669	-135.76541	375.39905	53.12614	-187.95113	662.12146	467.71513	-358.20151	723.29221	410.20636	-338.01832	782.23167	102.49007	-341.60865	739.13410	45.45865	-302.78364	900.60995	91.98364	-356.70677	933.05311	132.16358	-300.25373	332.18355	305.44049	-124.62994	311.61025	438.02886	-104.72487	254.70180	336.25776	-109.74362	649.92362	398.93059	-390.22047	687.44658	281.86307	-396.03241	474.86278	704.63848	-63.91372	449.05215	596.56865	-86.92900	380.24303	591.26736	-91.89253	364.00555	729.76869	-77.21283	337.81148	623.62021	-116.30503	601.13027	734.82736	-414.02324	652.34041	608.59465	-384.19214	499.66723	690.69403	-424.68046	545.98497	570.62324	-376.22080	564.53241	907.36588	-122.94532	362.42303	936.87245	-224.08592	586.68968	903.70344	-344.19966	373.51522	929.60889	-304.86159	474.20761	1378.40704	-227.64975	524.71873	1344.49900	-90.26714	507.53025	1347.28937	-368.48313	596.25080	1304.33259	-207.78113	592.94144	1306.32356	-249.80427	578.77629	1245.42204	-38.61580	565.21278	1021.99514	-24.64043	611.86633	1048.99535	15.59408	700.37326	1019.13762	-5.41167	804.11137	924.87880	-44.72140	790.28281	906.86383	-12.56409	489.97146	1249.20061	-442.35288	410.69905	1035.85708	-428.22805	429.80321	1057.31192	-488.32553	482.44803	966.26198	-517.41483	512.25403	840.13981	-522.31889	478.54437	839.70419	-545.12357	481.70567	820.49501	-138.29230	506.37683	817.25608	-344.28658	491.83948	846.43483	-157.99511	511.73044	833.41000	-302.83186	
